<svg xmlns="http://www.w3.org/2000/svg" viewBox="0 0 64 64" width="64" height="64">
  <defs>
    <linearGradient id="shieldGrad" x1="0%" y1="0%" x2="100%" y2="100%">
      <stop offset="0%" stop-color="#0B1B3D"/>
      <stop offset="100%" stop-color="#162E66"/>
    </linearGradient>
    <linearGradient id="blueGlow" x1="0%" y1="0%" x2="100%" y2="100%">
      <stop offset="0%" stop-color="#3B82F6"/>
      <stop offset="100%" stop-color="#1D4ED8"/>
    </linearGradient>
  </defs>

  <!-- Escudo Base -->
  <path d="M32 4 L53 12 C53 12 54 33 32 57 C10 33 11 12 11 12 Z" fill="url(#shieldGrad)" stroke="url(#blueGlow)" stroke-width="3" stroke-linejoin="round"/>

  <!-- Borde interior fino -->
  <path d="M32 8 L48 14 C48 14 49 30 32 50 C15 30 16 14 16 14 Z" fill="none" stroke="#60A5FA" stroke-width="1.2" opacity="0.45"/>

  <!-- Silueta de Bloque Motor / Pistón Mecánico -->
  <!-- Cabeza de pistón / culata -->
  <rect x="23" y="16" width="18" height="13" rx="2.5" fill="#FFFFFF"/>
  <rect x="21" y="20" width="22" height="2.5" fill="#0B1B3D"/>
  <rect x="25" y="24" width="14" height="2" fill="#93C5FD"/>
  <!-- Biela / Eje -->
  <path d="M28 29 L30 39 H34 L36 29 Z" fill="#E2E8F0"/>
  <circle cx="32" cy="38" r="3.5" fill="#93C5FD"/>
  <circle cx="32" cy="38" r="1.5" fill="#0B1B3D"/>

  <!-- Badge Circular: Sello Check Verde de Verificación -->
  <circle cx="44" cy="42" r="10.5" fill="#064E3B"/>
  <circle cx="44" cy="42" r="9" fill="#10B981" stroke="#FFFFFF" stroke-width="1.8"/>
  <!-- Checkmark blanco -->
  <path d="M40 42 L42.5 44.8 L48 39" fill="none" stroke="#FFFFFF" stroke-width="2.4" stroke-linecap="round" stroke-linejoin="round"/>
</svg>
